<svg fill="none" height="40" viewBox="0 0 44 40" width="44" xmlns="http://www.w3.org/2000/svg"><g fill="#da1e28"><path d="m34.6049 18.2719c1.1813-2.8517-.1729-6.1211-3.0247-7.3023-2.8517-1.18122-6.121.173-7.3023 3.0247-1.1812 2.8517.173 6.1211 3.0248 7.3023 2.8517 1.1812 6.121-.173 7.3022-3.0247z"/><path d="m33.3953 12.1814c5.4548 5.4548 5.4548 14.304 0 19.7606l3.9514 3.9514c7.64-7.6401 7.64-20.0251 0-27.66335-7.6401-7.640068-20.0252-7.640068-27.66341 0l3.95141 3.95135c5.4548-5.45477 14.3039-5.45477 19.7606 0z"/><path d="m18.7994 26.1762c1.1812-2.8517-.173-6.1211-3.0248-7.3023-2.8517-1.1812-6.12103.173-7.30225 3.0247-1.18122 2.8518.17299 6.1211 3.02475 7.3023 2.8517 1.1813 6.121-.173 7.3023-3.0247z"/><path d="m5.73005 31.9402c7.64005 7.64 20.02515 7.64 27.66335 0l-3.9514-3.9514c-5.4548 5.4548-14.3039 5.4548-19.76057 0-5.4548-5.4548-5.4548-14.3039 0-19.76061l-3.95138-3.95138c-7.64007 7.64009-7.64007 20.02519 0 27.66339z"/></g></svg>
