<svg width="16" height="16" viewBox="0 0 16 16" fill="none" xmlns="http://www.w3.org/2000/svg">
<rect width="16" height="16" rx="8" fill="url(#paint0_linear_1043192_116)"/>
<path d="M3.816 10.88C3.61867 10.88 3.42933 10.8347 3.248 10.744C3.072 10.648 2.912 10.5227 2.768 10.368C2.62933 10.2133 2.52 10.0427 2.44 9.856C2.36 9.664 2.32 9.472 2.32 9.28C2.32 9.00267 2.40533 8.864 2.576 8.864C2.63467 8.864 2.688 8.88 2.736 8.912C2.78933 8.944 2.82667 9.008 2.848 9.104C2.86933 9.19467 2.90133 9.30667 2.944 9.44C2.992 9.57333 3.05333 9.70667 3.128 9.84C3.208 9.968 3.304 10.0773 3.416 10.168C3.528 10.2533 3.66133 10.296 3.816 10.296C3.97067 10.296 4.10133 10.24 4.208 10.128C4.32 10.016 4.408 9.88267 4.472 9.728C4.54133 9.57333 4.592 9.43733 4.624 9.32C4.76267 8.82933 4.856 8.31733 4.904 7.784C4.952 7.25067 4.976 6.74133 4.976 6.256C4.976 6.18133 4.96 6.12 4.928 6.072C4.896 6.024 4.84 6 4.76 6H4.2C4.16267 6 4.12533 5.976 4.088 5.928C4.05067 5.88 4.032 5.81867 4.032 5.744C4.032 5.64267 4.04533 5.576 4.072 5.544C4.104 5.512 4.13333 5.496 4.16 5.496H4.2C4.26933 5.496 4.376 5.49867 4.52 5.504C4.66933 5.504 4.83733 5.50667 5.024 5.512C5.21067 5.512 5.39733 5.51467 5.584 5.52C5.776 5.52533 5.94933 5.53067 6.104 5.536C6.25867 5.536 6.37333 5.536 6.448 5.536C6.50667 5.552 6.54667 5.57333 6.568 5.6C6.58933 5.62133 6.6 5.65333 6.6 5.696C6.6 5.82933 6.552 5.92 6.456 5.968C6.36533 6.016 6.25067 6.04 6.112 6.04C6.048 6.04 5.98133 6.03733 5.912 6.032C5.848 6.02133 5.784 6.01333 5.72 6.008C5.61867 6.008 5.568 6.06133 5.568 6.168C5.568 6.248 5.56533 6.37333 5.56 6.544C5.56 6.71467 5.55733 6.89867 5.552 7.096C5.54667 7.288 5.54133 7.46667 5.536 7.632C5.536 7.792 5.53333 7.904 5.528 7.968C5.51733 8.18667 5.496 8.42667 5.464 8.688C5.432 8.94933 5.38133 9.21067 5.312 9.472C5.24267 9.728 5.14667 9.96267 5.024 10.176C4.90133 10.3893 4.74133 10.56 4.544 10.688C4.34667 10.816 4.104 10.88 3.816 10.88ZM7.60206 10.96C7.4954 10.96 7.4234 10.9253 7.38606 10.856C7.35406 10.7867 7.33806 10.704 7.33806 10.608C7.3434 10.5067 7.34606 10.4133 7.34606 10.328C7.34606 9.78933 7.3994 9.25867 7.50606 8.736C7.61273 8.21333 7.73806 7.69333 7.88206 7.176C7.89273 7.144 7.9114 7.08533 7.93806 7C7.96473 6.90933 7.99406 6.81333 8.02606 6.712C8.05806 6.61067 8.0874 6.51733 8.11406 6.432C8.14606 6.34667 8.1674 6.288 8.17806 6.256C8.23673 6.07467 8.30606 5.944 8.38606 5.864C8.46606 5.77867 8.58073 5.736 8.73006 5.736C8.8634 5.736 8.9754 5.784 9.06606 5.88C9.16206 5.97067 9.2394 6.08267 9.29806 6.216C9.36206 6.344 9.41273 6.46667 9.45006 6.584C9.54073 6.86133 9.63406 7.144 9.73006 7.432C9.82606 7.71467 9.91673 7.99467 10.0021 8.272C10.0447 8.41067 10.1034 8.48 10.1781 8.48C10.2741 8.48 10.3647 8.36533 10.4501 8.136C10.4927 8.01867 10.5434 7.87733 10.6021 7.712C10.6661 7.54133 10.7301 7.37067 10.7941 7.2C10.8581 7.024 10.9141 6.86667 10.9621 6.728C11.0154 6.58933 11.0527 6.49067 11.0741 6.432C11.1594 6.21333 11.2527 6.03733 11.3541 5.904C11.4607 5.76533 11.6101 5.696 11.8021 5.696C11.9461 5.696 12.0634 5.74667 12.1541 5.848C12.2447 5.944 12.3194 6.064 12.3781 6.208C12.4367 6.34667 12.4847 6.48267 12.5221 6.616C12.6661 7.16 12.7754 7.712 12.8501 8.272C12.9301 8.832 12.9701 9.38933 12.9701 9.944V10.256C12.9487 10.3253 12.9194 10.3707 12.8821 10.392C12.8447 10.408 12.7781 10.416 12.6821 10.416C12.5487 10.416 12.4527 10.328 12.3941 10.152C12.3621 10.056 12.3407 9.95733 12.3301 9.856C12.3194 9.75467 12.3087 9.65333 12.2981 9.552C12.2447 9.008 12.1967 8.57333 12.1541 8.248C12.1167 7.91733 12.0821 7.66133 12.0501 7.48C12.0234 7.29867 11.9994 7.16 11.9781 7.064C11.9567 6.96267 11.9354 6.86933 11.9141 6.784C11.8981 6.688 11.8527 6.64 11.7781 6.64C11.6981 6.64 11.6341 6.688 11.5861 6.784C11.5541 6.88 11.5061 7.01867 11.4421 7.2C11.3834 7.38133 11.3167 7.57333 11.2421 7.776C11.1674 7.97867 11.1007 8.16267 11.0421 8.328C10.9834 8.49333 10.9434 8.608 10.9221 8.672C10.8954 8.74133 10.8581 8.83733 10.8101 8.96C10.7621 9.07733 10.7034 9.19467 10.6341 9.312C10.5701 9.42933 10.4954 9.53067 10.4101 9.616C10.3301 9.696 10.2447 9.736 10.1541 9.736C10.0687 9.736 9.9914 9.70133 9.92206 9.632C9.85273 9.55733 9.79406 9.472 9.74606 9.376C9.7034 9.28 9.66873 9.2 9.64206 9.136L8.97806 7.176C8.97273 7.14933 8.96206 7.112 8.94606 7.064C8.93006 7.01067 8.9034 6.96267 8.86606 6.92C8.83406 6.872 8.78606 6.848 8.72206 6.848C8.6634 6.848 8.6154 6.87467 8.57806 6.928C8.54606 6.98133 8.52206 7.04267 8.50606 7.112C8.49006 7.18133 8.4794 7.23733 8.47406 7.28C8.4634 7.33333 8.4474 7.40267 8.42606 7.488C8.40473 7.568 8.3834 7.65333 8.36206 7.744C8.34073 7.824 8.32206 7.90133 8.30606 7.976C8.2954 8.04533 8.28473 8.09867 8.27406 8.136C8.26873 8.17333 8.2554 8.24 8.23406 8.336C8.21806 8.432 8.20206 8.53333 8.18606 8.64C8.1434 8.91733 8.1034 9.18933 8.06606 9.456C8.03406 9.71733 8.00206 10.0027 7.97006 10.312C7.96473 10.4027 7.9514 10.4987 7.93006 10.6C7.90873 10.7013 7.8714 10.7867 7.81806 10.856C7.77006 10.9253 7.69806 10.96 7.60206 10.96Z" fill="#F8FAFC"/>
<defs>
<linearGradient id="paint0_linear_1043192_116" x1="14.5" y1="5" x2="0.5" y2="14" gradientUnits="userSpaceOnUse">
<stop stop-color="#7F22FE"/>
<stop offset="1" stop-color="#155DFC"/>
</linearGradient>
</defs>
</svg>
